<?xml version="1.0" encoding="UTF-8"?>
<svg version="1.1" viewBox="0 0 2048 1365" width="2560" height="1707" xmlns="http://www.w3.org/2000/svg">
<path transform="translate(0)" d="m0 0h2048v1088h-64l-8-1-34-1-15-4-5-1-4-9-10-6-7-2-2-10-12-11-12-22-17-3-4-4 2-7-7-2-25-3-8-3-16-9-9-2h-41l-9-6-5-1-5 2-13 10-3-1-2-7h-7l-5-3-5-1-6 12-2 8h-17l-16-3-13-5 2-9 13-33 8-16 4-6 7 4 11 9 12 9 14 7 14 3h24l16-4 16-8 11-8 7-6 11-14 9-16 5-12v-11l-9-12-1-5v-15l3-11 1-4-6-11-8-10-11-11-10-7-16-8-9-3-13-2-16 1-13 4-17 8-9 2-3-3-1-26-3-12-7-8-10-5-17-4-41-5-27-4-28-2-115-1-28 1-22 3-28 3-31 3-16 4-10 5-3 1-2 4-4 10-2 18 1 36 2 28 4 31 6 29 6 19 9 25 3 15-18-3h-35l-3-7-4-3-15-4h-17l-7 3-5 8-6 7-6 1-12-6-11-1-10 3-10 6-15 13-15 1-10 2h-30l-29-3h-5l-4 4-5-1-12-10-9-3h-9l-12 4-10 6-3 2-8-1-8-4-11-8-3-1h-9l-11 6-22-1-3-1 2-5 5-5h-15l-21 1-4 2-4 8-7 2-7 3-9 6-22 1-8 6-13 12-3 3-4-1-4-5-9 1-16 8-12 4h-10l-29-4-12-1-1 4-10-4h-8l-10 4-13 8-4-1-4-2h-6l-15 10-8 1-9-10-7-4-6-1-10 5-7-5-8-1-5 5-7 8-2 1h-10l-7-16-6-5-5-2h-6l-8 6-9 10-4 1-6-4-7-1-9 6-10 1-9 11h-2l-4-5-5-2h-10l-36 6h-28l-18-4h-8l-5 1h-12l-7-2-19 2h-38l-26-3-32-6-40-9h-14l-24 7h-11l-20-4-9-1h-25l-20 3-16 4h-11l-26-6-19-3z"/>
<path transform="translate(1735,833)" d="m0 0h9l13 3 11 7 6 8 4 9 1 6v11l-3 12-6 10-9 9-11 5-5 1h-12l-10-3-9-6-7-7-6-12-1-4v-16l4-11 9-10 10-6z"/>
</svg>
